<svg viewBox="0 0 72 96" xmlns="http://www.w3.org/2000/svg" role="img" aria-label="athletic line — a laurel-crowned competitor">
  <!-- ATHLETIC: a laurel-crowned competitor bust — the physical-glory power base. -->
  <g fill="#c9a24a" stroke="#1a140c" stroke-width="2" stroke-linejoin="round">
    <!-- broad athletic shoulders -->
    <path d="M6 96 C6 76 22 68 36 68 C50 68 66 76 66 96 Z"/>
    <circle cx="36" cy="50" r="15"/>
  </g>
  <!-- laurel wreath -->
  <g fill="none" stroke="#1a140c" stroke-width="2" stroke-linecap="round">
    <path d="M22 44 C16 38 16 30 20 26"/>
    <path d="M50 44 C56 38 56 30 52 26"/>
  </g>
  <g fill="#9bbf5a" stroke="#1a140c" stroke-width="1">
    <ellipse cx="19" cy="34" rx="3" ry="2" transform="rotate(-40 19 34)"/>
    <ellipse cx="22" cy="28" rx="3" ry="2" transform="rotate(-25 22 28)"/>
    <ellipse cx="53" cy="34" rx="3" ry="2" transform="rotate(40 53 34)"/>
    <ellipse cx="50" cy="28" rx="3" ry="2" transform="rotate(25 50 28)"/>
  </g>
</svg>
