<svg id="emoji" viewBox="0 0 72 72" xmlns="http://www.w3.org/2000/svg">
  <g id="color">
    <path fill="#5C9E31" d="M36 36 C36 36 20 30 14 18 C12 13 15 8 20 10 C22 11 24 14 24 14 C22 8 24 4 29 5 C34 6 34 13 34 13 C34 7 37 4 41 6 C45 8 44 14 44 14 C44 14 46 11 48 10 C53 8 56 13 54 18 C48 30 36 36 36 36Z"/>
    <path fill="#5C9E31" d="M36 36 C36 36 20 42 14 54 C12 59 15 64 20 62 C22 61 24 58 24 58 C22 64 24 68 29 67 C34 66 34 59 34 59 C34 65 37 68 41 66 C45 64 44 58 44 58 C44 58 46 61 48 62 C53 64 56 59 54 54 C48 42 36 36 36 36Z"/>
    <path fill="#5C9E31" d="M36 36 C36 36 30 20 18 14 C13 12 8 15 10 20 C11 22 14 24 14 24 C8 22 4 24 5 29 C6 34 13 34 13 34 C7 34 4 37 6 41 C8 45 14 44 14 44 C14 44 11 46 10 48 C8 53 13 56 18 54 C30 48 36 36 36 36Z"/>
    <path fill="#5C9E31" d="M36 36 C36 36 42 20 54 14 C59 12 64 15 62 20 C61 22 58 24 58 24 C64 22 68 24 67 29 C66 34 59 34 59 34 C65 34 68 37 66 41 C64 45 58 44 58 44 C58 44 61 46 62 48 C64 53 59 56 54 54 C42 48 36 36 36 36Z"/>
    <circle fill="#E8D44D" cx="36" cy="36" r="4"/>
  </g>
  <g id="line">
    <path fill="none" stroke="#000" stroke-linecap="round" stroke-linejoin="round" stroke-miterlimit="10" stroke-width="2" d="M36 36 C36 36 20 30 14 18 C12 13 15 8 20 10 C22 11 24 14 24 14 C22 8 24 4 29 5 C34 6 34 13 34 13 C34 7 37 4 41 6 C45 8 44 14 44 14 C44 14 46 11 48 10 C53 8 56 13 54 18 C48 30 36 36 36 36Z"/>
    <path fill="none" stroke="#000" stroke-linecap="round" stroke-linejoin="round" stroke-miterlimit="10" stroke-width="2" d="M36 36 C36 36 20 42 14 54 C12 59 15 64 20 62 C22 61 24 58 24 58 C22 64 24 68 29 67 C34 66 34 59 34 59 C34 65 37 68 41 66 C45 64 44 58 44 58 C44 58 46 61 48 62 C53 64 56 59 54 54 C48 42 36 36 36 36Z"/>
    <path fill="none" stroke="#000" stroke-linecap="round" stroke-linejoin="round" stroke-miterlimit="10" stroke-width="2" d="M36 36 C36 36 30 20 18 14 C13 12 8 15 10 20 C11 22 14 24 14 24 C8 22 4 24 5 29 C6 34 13 34 13 34 C7 34 4 37 6 41 C8 45 14 44 14 44 C14 44 11 46 10 48 C8 53 13 56 18 54 C30 48 36 36 36 36Z"/>
    <path fill="none" stroke="#000" stroke-linecap="round" stroke-linejoin="round" stroke-miterlimit="10" stroke-width="2" d="M36 36 C36 36 42 20 54 14 C59 12 64 15 62 20 C61 22 58 24 58 24 C64 22 68 24 67 29 C66 34 59 34 59 34 C65 34 68 37 66 41 C64 45 58 44 58 44 C58 44 61 46 62 48 C64 53 59 56 54 54 C42 48 36 36 36 36Z"/>
    <circle fill="none" stroke="#000" stroke-linecap="round" stroke-linejoin="round" stroke-miterlimit="10" stroke-width="2" cx="36" cy="36" r="4"/>
  </g>
</svg>
