<svg id="emoji" viewBox="0 0 72 72" xmlns="http://www.w3.org/2000/svg">
  <g id="color">
    <ellipse fill="#9B9B9A" cx="36" cy="46" rx="8" ry="12"/>
    <path fill="#B1CC33" d="M36 10 C28 10 18 22 18 34 L28 34 C28 26 32 20 36 20 C40 20 44 26 44 34 L54 34 C54 22 44 10 36 10Z"/>
    <path fill="#9B9B9A" d="M28 34 L44 34 L44 46 L28 46Z"/>
    <rect x="30" y="55" width="12" height="5" rx="2" fill="#9B9B9A"/>
    <path fill="#EA5A47" d="M33 55 L39 55 L36 62Z"/>
    <rect x="24" y="40" width="8" height="4" rx="2" fill="#FFFFFF"/>
    <rect x="40" y="40" width="8" height="4" rx="2" fill="#FFFFFF"/>
  </g>
  <g id="line">
    <ellipse fill="none" stroke="#000" stroke-linecap="round" stroke-linejoin="round" stroke-miterlimit="10" stroke-width="2" cx="36" cy="46" rx="8" ry="12"/>
    <path fill="none" stroke="#000" stroke-linecap="round" stroke-linejoin="round" stroke-miterlimit="10" stroke-width="2" d="M36 10 C28 10 18 22 18 34 L28 34 C28 26 32 20 36 20 C40 20 44 26 44 34 L54 34 C54 22 44 10 36 10Z"/>
    <path fill="none" stroke="#000" stroke-linecap="round" stroke-linejoin="round" stroke-miterlimit="10" stroke-width="2" d="M28 34 L44 34 L44 46 L28 46Z"/>
    <rect fill="none" stroke="#000" stroke-linecap="round" stroke-linejoin="round" stroke-miterlimit="10" stroke-width="2" x="30" y="55" width="12" height="5" rx="2"/>
    <path fill="none" stroke="#000" stroke-linecap="round" stroke-linejoin="round" stroke-miterlimit="10" stroke-width="2" d="M33 55 L39 55 L36 62Z"/>
    <rect fill="none" stroke="#000" stroke-linecap="round" stroke-linejoin="round" stroke-miterlimit="10" stroke-width="2" x="24" y="40" width="8" height="4" rx="2"/>
    <rect fill="none" stroke="#000" stroke-linecap="round" stroke-linejoin="round" stroke-miterlimit="10" stroke-width="2" x="40" y="40" width="8" height="4" rx="2"/>
  </g>
</svg>
